<svg width="24" height="23" viewBox="0 0 24 23" fill="none" xmlns="http://www.w3.org/2000/svg">
<path d="M2.34146 22.6943C1.69756 22.6943 1.14615 22.4776 0.687219 22.0442C0.229073 21.6115 0 21.0911 0 20.4829V5.00325C0 4.39512 0.229073 3.87434 0.687219 3.44091C1.14615 3.00822 1.69756 2.79187 2.34146 2.79187H12.7902L10.4488 5.00325H2.34146V20.4829H18.7317V12.7984L21.0732 10.587V20.4829C21.0732 21.0911 20.8441 21.6115 20.386 22.0442C19.927 22.4776 19.3756 22.6943 18.7317 22.6943H2.34146ZM15.4244 3.42764L17.0927 4.97561L9.36585 12.2732V13.8488H11.0049L18.761 6.52358L20.4293 8.07154L12 16.0602H7.02439V11.361L15.4244 3.42764ZM20.4293 8.07154L15.4244 3.42764L18.3512 0.663415C18.8195 0.221138 19.3807 0 20.0347 0C20.688 0 21.239 0.221138 21.6878 0.663415L23.3268 2.23902C23.7756 2.66287 24 3.17886 24 3.78699C24 4.39512 23.7756 4.91111 23.3268 5.33496L20.4293 8.07154Z" fill="#D9D9D9"/>
</svg>
