<svg width="16" height="14" viewBox="0 0 16 14" fill="none" xmlns="http://www.w3.org/2000/svg">
<path d="M9.33249 13.8666C9.24695 13.8665 9.16197 13.8527 9.08083 13.8256L6.40917 12.9366C6.25029 12.8832 6.11228 12.7811 6.01474 12.6448C5.9172 12.5085 5.8651 12.3449 5.86584 12.1773V8.20362C5.86511 8.20201 5.8641 8.20054 5.86284 8.19929L0.241208 1.65132C0.116555 1.50611 0.0361908 1.32817 0.00965766 1.13863C-0.0168754 0.9491 0.0115367 0.755933 0.0915208 0.582067C0.171505 0.408201 0.299701 0.260938 0.46089 0.157763C0.622079 0.0545871 0.809489 -0.000167127 1.00087 3.83198e-07H14.9991C15.1905 -0.000167127 15.3779 0.0545871 15.5391 0.157763C15.7003 0.260938 15.8285 0.408201 15.9085 0.582067C15.9885 0.755933 16.0169 0.9491 15.9903 1.13863C15.9638 1.32817 15.8834 1.50611 15.7588 1.65132L10.1355 8.19996C10.1343 8.20129 10.1333 8.20275 10.1325 8.20429V13.0666C10.1328 13.1717 10.1123 13.2759 10.0722 13.3731C10.0321 13.4703 9.97321 13.5586 9.89886 13.633C9.82452 13.7073 9.7362 13.7662 9.639 13.8063C9.5418 13.8464 9.43764 13.8669 9.33249 13.8666Z" fill="white"/>
</svg>
