<svg width="36" height="38" viewBox="0 0 36 38" fill="none" xmlns="http://www.w3.org/2000/svg">
<path d="M22.6324 31.5282L22.3867 31.6306L22.3345 31.8917L21.3014 37.0568H14.6986L13.6655 31.8917L13.6133 31.6306L13.3676 31.5282C12.6377 31.2241 11.9546 30.9061 11.3179 30.5745C10.694 30.2459 10.0503 29.8411 9.38687 29.3586L9.18407 29.2111L8.94458 29.2854L3.94146 30.8381L0.641646 25.2284L4.59613 21.7897L4.80151 21.6111L4.76302 21.3417C4.64208 20.4951 4.58247 19.7149 4.58247 19.0001C4.58247 18.2852 4.64208 17.505 4.76302 16.6584L4.80151 16.389L4.59613 16.2104L0.641646 12.7717L3.94146 7.16201L8.94458 8.71471L9.18407 8.78903L9.38687 8.64154C10.0503 8.15906 10.6939 7.75433 11.3178 7.42567C11.9544 7.09405 12.6376 6.77606 13.3676 6.47191L13.6133 6.3695L13.6655 6.10843L14.6986 0.943359H21.3014L22.3345 6.10843L22.3867 6.3695L22.6324 6.47191C23.3624 6.77606 24.0456 7.09405 24.6822 7.42566C25.3061 7.75432 25.9497 8.15906 26.6131 8.64154L26.8159 8.78903L27.0554 8.71471L32.0585 7.16201L35.3584 12.7717L31.4039 16.2104L31.1985 16.389L31.237 16.6584C31.3579 17.505 31.4175 18.2852 31.4175 19.0001C31.4175 19.7149 31.3579 20.4951 31.237 21.3417L31.1985 21.6111L31.4039 21.7897L35.3584 25.2284L32.0585 30.8381L27.0554 29.2854L26.8159 29.2111L26.6131 29.3586C25.9497 29.841 25.3061 30.2458 24.6823 30.5744C24.0456 30.906 23.3624 31.224 22.6324 31.5282ZM23.598 13.4027L23.5974 13.4021C22.0495 11.8569 20.1747 11.0774 18 11.0774C15.8252 11.0774 13.9515 11.8569 12.406 13.4024C10.8583 14.9502 10.0773 16.825 10.0773 19.0001C10.0773 21.1748 10.8581 23.0484 12.4057 24.5937C13.9511 26.1418 15.8249 26.9227 18 26.9227C20.175 26.9227 22.0499 26.1418 23.5977 24.594C25.1432 23.0485 25.9227 21.1748 25.9227 19.0001C25.9227 16.8253 25.1432 14.9505 23.598 13.4027Z" stroke="#D9D9D9"/>
</svg>
