<svg width="24" height="28" viewBox="0 0 24 28" fill="none" xmlns="http://www.w3.org/2000/svg">
<path d="M4.5 27.5C3.675 27.5 2.969 27.2065 2.382 26.6195C1.794 26.0315 1.5 25.325 1.5 24.5V5C1.075 5 0.7185 4.8565 0.4305 4.5695C0.1435 4.2815 0 3.925 0 3.5C0 3.075 0.1435 2.7185 0.4305 2.4305C0.7185 2.1435 1.075 2 1.5 2H7.5C7.5 1.575 7.644 1.2185 7.932 0.9305C8.219 0.6435 8.575 0.5 9 0.5H15C15.425 0.5 15.7815 0.6435 16.0695 0.9305C16.3565 1.2185 16.5 1.575 16.5 2H22.5C22.925 2 23.281 2.1435 23.568 2.4305C23.856 2.7185 24 3.075 24 3.5C24 3.925 23.856 4.2815 23.568 4.5695C23.281 4.8565 22.925 5 22.5 5V24.5C22.5 25.325 22.2065 26.0315 21.6195 26.6195C21.0315 27.2065 20.325 27.5 19.5 27.5H4.5ZM7.5 20C7.5 20.425 7.644 20.781 7.932 21.068C8.219 21.356 8.575 21.5 9 21.5C9.425 21.5 9.7815 21.356 10.0695 21.068C10.3565 20.781 10.5 20.425 10.5 20V9.5C10.5 9.075 10.3565 8.7185 10.0695 8.4305C9.7815 8.1435 9.425 8 9 8C8.575 8 8.219 8.1435 7.932 8.4305C7.644 8.7185 7.5 9.075 7.5 9.5V20ZM13.5 20C13.5 20.425 13.644 20.781 13.932 21.068C14.219 21.356 14.575 21.5 15 21.5C15.425 21.5 15.7815 21.356 16.0695 21.068C16.3565 20.781 16.5 20.425 16.5 20V9.5C16.5 9.075 16.3565 8.7185 16.0695 8.4305C15.7815 8.1435 15.425 8 15 8C14.575 8 14.219 8.1435 13.932 8.4305C13.644 8.7185 13.5 9.075 13.5 9.5V20Z" fill="#D9D9D9"/>
</svg>
